2014007_C4_04_grf
version=1
nRows=15
nColumns=19
inDegrees=no
endheader
time	ground_force_1_vx	ground_force_1_vy	ground_force_1_vz	ground_force_1_px	ground_force_1_py	ground_force_1_pz	ground_force_1_mx	ground_force_1_my	ground_force_1_mz	ground_force_2_vx	ground_force_2_vy	ground_force_2_vz	ground_force_2_px	ground_force_2_py	ground_force_2_pz	ground_force_2_mx	ground_force_2_my	ground_force_2_mz
      0.47000000	      0.00000000	      0.00000000	      0.00000000	      0.00000000	      0.00000000	      0.00000000	      0.00000000	      0.00000000	      0.00000000	     -1.37902801	    573.19705188	    -17.59345978	     -0.66457037	     -0.00200000	      0.34182092	     -0.00000000	      0.26981834	      0.00000000
      0.47100000	      0.00000000	      0.00000000	      0.00000000	      0.00000000	      0.00000000	      0.00000000	      0.00000000	      0.00000000	      0.00000000	     -1.15037818	    573.76000285	    -17.61902347	     -0.66431538	     -0.00200000	      0.34187293	     -0.00000000	      0.27539753	      0.00000000
      0.47200000	      0.00000000	      0.00000000	      0.00000000	      0.00000000	      0.00000000	      0.00000000	      0.00000000	      0.00000000	      0.00000000	     -0.92353192	    574.32863861	    -17.64678657	     -0.66405934	     -0.00200000	      0.34192506	      0.00000000	      0.28087516	      0.00000000
      0.47300000	      0.00000000	      0.00000000	      0.00000000	      0.00000000	      0.00000000	      0.00000000	      0.00000000	      0.00000000	      0.00000000	     -0.69887617	    574.90421087	    -17.67737120	     -0.66380197	     -0.00200000	      0.34197733	      0.00000000	      0.28622819	      0.00000000
      0.47400000	      0.00000000	      0.00000000	      0.00000000	      0.00000000	      0.00000000	      0.00000000	      0.00000000	      0.00000000	      0.00000000	     -0.47591833	    575.48515499	    -17.71026552	     -0.66354354	     -0.00200000	      0.34202975	      0.00000000	      0.29148487	      0.00000000
      0.47500000	      0.00000000	      0.00000000	      0.00000000	      0.00000000	      0.00000000	      0.00000000	      0.00000000	      0.00000000	      0.00000000	     -0.25501656	    576.07259229	    -17.74610579	     -0.66328375	     -0.00200000	      0.34208236	      0.00000000	      0.29662563	      0.00000000
      0.47600000	      0.00000000	      0.00000000	      0.00000000	      0.00000000	      0.00000000	      0.00000000	      0.00000000	      0.00000000	      0.00000000	     -0.03571016	    576.66508853	    -17.78433919	     -0.66302288	     -0.00200000	      0.34213514	      0.00000000	      0.30168035	      0.00000000
      0.47700000	      0.00000000	      0.00000000	      0.00000000	      0.00000000	      0.00000000	      0.00000000	      0.00000000	      0.00000000	      0.00000000	      0.18166171	    577.26363465	    -17.82560274	     -0.66276065	     -0.00200000	      0.34218818	      0.00000000	      0.30663442	      0.00000000
      0.47800000	      0.00000000	      0.00000000	      0.00000000	      0.00000000	      0.00000000	      0.00000000	      0.00000000	      0.00000000	      0.00000000	      0.39753229	    577.86687464	    -17.86931902	     -0.66249734	     -0.00200000	      0.34224141	      0.00000000	      0.31151281	     -0.00000000
      0.47900000	      0.00000000	      0.00000000	      0.00000000	      0.00000000	      0.00000000	      0.00000000	      0.00000000	      0.00000000	      0.00000000	      0.61158418	    578.47582549	    -17.91612953	     -0.66223272	     -0.00200000	      0.34229491	     -0.00000000	      0.31630075	      0.00000000
      0.48000000	      0.00000000	      0.00000000	      0.00000000	      0.00000000	      0.00000000	      0.00000000	      0.00000000	      0.00000000	      0.00000000	      0.82422947	    579.08920944	    -17.96544045	     -0.66196707	     -0.00200000	      0.34234861	      0.00000000	      0.32101670	      0.00000000
      0.48100000	      0.00000000	      0.00000000	      0.00000000	      0.00000000	      0.00000000	      0.00000000	      0.00000000	      0.00000000	      0.00000000	      1.03518196	    579.70809564	    -18.01791042	     -0.66170022	     -0.00200000	      0.34240252	      0.00000000	      0.32564150	      0.00000000
      0.48200000	      0.00000000	      0.00000000	      0.00000000	      0.00000000	      0.00000000	      0.00000000	      0.00000000	      0.00000000	      0.00000000	      1.24484055	    580.33136278	    -18.07293445	     -0.66143247	     -0.00200000	      0.34245658	      0.00000000	      0.33019116	      0.00000000
      0.48300000	      0.00000000	      0.00000000	      0.00000000	      0.00000000	      0.00000000	      0.00000000	      0.00000000	      0.00000000	      0.00000000	      1.45297070	    580.96000180	    -18.13117042	     -0.66116366	     -0.00200000	      0.34251081	      0.00000000	      0.33464377	      0.00000000
      0.48400000	      0.00000000	      0.00000000	      0.00000000	      0.00000000	      0.00000000	      0.00000000	      0.00000000	      0.00000000	      0.00000000	      1.65995808	    581.59291744	    -18.19198877	     -0.66089407	     -0.00200000	      0.34256514	      0.00000000	      0.33901654	      0.00000000
